<mxfile host="app.diagrams.net" modified="2023-06-26T19:36:48.051Z" agent="Mozilla/5.0 (Windows NT 10.0; Win64; x64) AppleWebKit/537.36 (KHTML, like Gecko) Chrome/114.0.0.0 Safari/537.36" version="21.5.0" etag="qrJ_LBFk_JARTahvRSeq" type="github">
  <diagram name="Page-1" id="hTqZuRmbeiolG7rhy6ji">
    <mxGraphModel>
      <root>
        <mxCell id="0" />
        <mxCell id="1" parent="0" />
      </root>
    </mxGraphModel>
  </diagram>
</mxfile>
